<svg width="100%" height="100%" viewBox="0 0 400 400" xmlns="http://www.w3.org/2000/svg" role="img" aria-label="Ilustrasi rumah dan tas belanja penuh bahan makanan">
  <circle cx="200" cy="190" r="170" fill="#E6F2EB"/>
  <circle cx="290" cy="110" r="70" fill="#FFEEE0"/>

  <ellipse cx="200" cy="347" rx="110" ry="14" fill="#08512D" opacity="0.12"/>

  <path d="M 110,150 L 200,90 L 290,150 Z" fill="#0B6A3B"/>
  <rect x="120" y="150" width="160" height="110" rx="6" fill="#FFFFFF" stroke="#0B6A3B" stroke-width="3"/>
  <rect x="185" y="205" width="30" height="60" rx="4" fill="#0B6A3B"/>
  <rect x="140" y="175" width="28" height="28" rx="4" fill="#FF7A1A" opacity="0.85"/>
  <line x1="154" y1="175" x2="154" y2="203" stroke="#FFFFFF" stroke-width="2"/>
  <line x1="140" y1="189" x2="168" y2="189" stroke="#FFFFFF" stroke-width="2"/>
  <rect x="232" y="175" width="28" height="28" rx="4" fill="#FF7A1A" opacity="0.85"/>
  <line x1="246" y1="175" x2="246" y2="203" stroke="#FFFFFF" stroke-width="2"/>
  <line x1="232" y1="189" x2="260" y2="189" stroke="#FFFFFF" stroke-width="2"/>

  <path d="M 150,222 Q 140,190 148,158 Q 160,190 155,222 Z" fill="#08512D"/>
  <path d="M 165,222 Q 158,180 168,150 Q 178,185 172,222 Z" fill="#0B6A3B"/>
  <path d="M 178,222 Q 172,195 182,168 Q 190,198 185,222 Z" fill="#08512D"/>

  <rect x="175" y="160" width="80" height="20" rx="10" fill="#FF7A1A" transform="rotate(-38 215 170)"/>

  <circle cx="252" cy="182" r="15" fill="#E0650A"/>
  <rect x="250" y="163" width="4" height="8" fill="#08512D"/>
  <path d="M 254,166 Q 262,162 258,172 Z" fill="#0B6A3B"/>

  <path d="M 155,222 C 155,195 175,195 175,222" fill="none" stroke="#08512D" stroke-width="8" stroke-linecap="round"/>
  <path d="M 225,222 C 225,195 245,195 245,222" fill="none" stroke="#08512D" stroke-width="8" stroke-linecap="round"/>
  <path d="M 130,230 L 270,230 L 290,345 Q 290,352 283,352 L 117,352 Q 110,352 110,345 Z" fill="#0B6A3B"/>
  <rect x="125" y="222" width="150" height="16" rx="6" fill="#08512D"/>

  <circle cx="90" cy="100" r="6" fill="#FF7A1A" opacity="0.4"/>
  <circle cx="335" cy="255" r="8" fill="#0B6A3B" opacity="0.15"/>
  <circle cx="345" cy="80" r="5" fill="#0B6A3B" opacity="0.25"/>
  <circle cx="70" cy="270" r="5" fill="#FF7A1A" opacity="0.3"/>
</svg>
